@startuml

class User {
    given name
    email address
    phone number
}

class "Registered User" as RegisteredUser {
    user id
    password
    service preferences
}

class Business {
    business id
    name
    description
    certifications
}

class "Business Performance Stats" as BusinessPerformanceStats

class Service {
   service id
   name
   description
   location
   price
   duration
}

class "Service Category" as ServiceCategory {
    category id
    category name
    category description
}

class "Service Booking" as ServiceBooking {
    scheduled date
    creation date
    refund deadline
}

class "Service Review" as ServiceReview {
    user rating
    user feedback
    submission date
}

class "Time Slot" as TimeSlot {
   start time
   end time
}

enum "Booking Status" as BookingStatus {
   pending
   confirmed
   canceled
   refunded
}

class "Payment Method" as PaymentMethod


RegisteredUser --|> User
Business "1" -r-> "0..*" Service : provides
Service "0..*" *--> "0..*" TimeSlot : available in
User "0..*" --> "0..*" Service : booked service
(User, Service) .. ServiceBooking
ServiceBooking  "0..*" --> "1" BookingStatus : has status
RegisteredUser "1" -r-> "0..*" PaymentMethod : saves payment method
RegisteredUser "1" --> "0..1" ServiceReview : submits
Service "1" -u-> "0..*" ServiceReview : receives user review
Service "0..*" --> "1" ServiceCategory : belongs to
Business "1" -u-> "0..*" BusinessPerformanceStats : has
Business "1" -r-> "0..*" ServiceReview : responds to
User "1" -d-> "0..*" ServiceBooking : cancels
ServiceBooking "1" --> "1" TimeSlot : reserved in
ServiceBooking "1" -r--> "1" PaymentMethod : paid using


@enduml
